<svg version="1.2" xmlns="http://www.w3.org/2000/svg" viewBox="0 0 55 55" width="55" height="55">
	<title>icon1</title>
	<style>
		.s0 { fill: #000000 } 
	</style>
	<path id="Forma 1" fill-rule="evenodd" class="s0" d="m45.1 24c0.5 0 1 0.5 1 1 0 0.6-0.5 1-1 1-0.6 0-1-0.4-1-1 0-0.5 0.4-1 1-1zm-36.1 0c0.6 0 1 0.5 1 1 0 0.6-0.4 1-1 1-0.5 0-1-0.4-1-1 0-0.5 0.5-1 1-1zm3 3c0.6 0 1 0.4 1 1 0 0.5-0.4 1-1 1-0.5 0-1-0.5-1-1 0-0.6 0.5-1 1-1zm6 0c0.6 0 1 0.4 1 1 0 0.5-0.4 1-1 1-0.5 0-1-0.5-1-1 0-0.6 0.5-1 1-1zm-3 3c0.6 0 1 0.4 1 1 0 0.5-0.4 1-1 1-0.5 0-1-0.5-1-1 0-0.6 0.5-1 1-1zm6 0c0.6 0 1 0.4 1 1 0 0.5-0.4 1-1 1-0.5 0-1-0.5-1-1 0-0.6 0.5-1 1-1zm3 3c0.6 0 1 0.4 1 1 0 0.5-0.4 1-1 1-0.5 0-1-0.5-1-1 0-0.6 0.5-1 1-1zm6 0c0.6 0 1 0.4 1 1 0 0.5-0.4 1-1 1-0.5 0-1-0.5-1-1 0-0.6 0.5-1 1-1zm3-3c0.6 0 1 0.4 1 1 0 0.5-0.4 1-1 1-0.5 0-1-0.5-1-1 0-0.6 0.5-1 1-1zm-6 5.9c0.6 0 1 0.5 1 1 0 0.6-0.4 1-1 1-0.5 0-1-0.4-1-1 0-0.5 0.5-1 1-1zm9.1-8.9c0.5 0 1 0.4 1 1 0 0.5-0.5 1-1 1-0.6 0-1-0.5-1-1 0-0.6 0.4-1 1-1zm6 0c0.5 0 1 0.4 1 1 0 0.5-0.5 1-1 1-0.6 0-1-0.5-1-1 0-0.6 0.4-1 1-1zm-3 3c0.5 0 1 0.4 1 1 0 0.5-0.5 1-1 1-0.6 0-1-0.5-1-1 0-0.6 0.4-1 1-1zm6.3 1.9h-0.1l9.7 5.5-27.5 15.6-27.5-15.6 9.7-5.5-9.7-5.4 9.7-5.5-9.7-5.5 27.5-15.5 27.5 15.5-9.7 5.5 9.7 5.5-9.4 5.3q-0.1 0.1-0.2 0.1zm-41.4-16.4l23.5 13.3 15.8-8.9 7.7-4.4-23.5-13.2zm0 10.9l1.4 0.8q0.2-0.2 0.6-0.2c0.5 0 1 0.4 1 1q0 0 0 0.1l10 5.7c0.1-0.5 0.5-0.9 1-0.9 0.5 0 1 0.5 1 1 0 0.3-0.2 0.6-0.4 0.8l2.2 1.3q0.1-0.1 0.2-0.1c0.4 0 0.8 0.3 0.9 0.7l5.6 3.1 4.5-2.6q0-0.1 0-0.2c0-0.5 0.5-1 1-1q0.4 0 0.7 0.3l2.3-1.3c-0.6 0-1-0.4-1-1 0-0.5 0.5-1 1-1 0.6 0 1 0.5 1 1q0 0.3-0.1 0.5l6.4-3.6 3.9-2.3q-0.2-0.2-0.2-0.5c0-0.6 0.5-1 1-1 0.4 0 0.8 0.2 0.9 0.5l2-1.1-7.6-4.3-0.4 0.2c-0.1 0.4-0.4 0.7-0.9 0.7q-0.1 0-0.2-0.1l-2.2 1.3c0.2 0.2 0.4 0.4 0.4 0.8 0 0.5-0.4 1-1 1-0.5 0-0.9-0.4-1-0.9l-10 5.7q0 0.1 0 0.1c0 0.6-0.4 1-1 1-0.6 0-1-0.4-1-1q0-0.3 0.2-0.5l-10.3-5.9q0.1 0.2 0.1 0.5c0 0.5-0.5 1-1 1-0.6 0-1-0.5-1-1 0-0.6 0.4-1 0.9-1l-2.2-1.3q-0.3 0.3-0.7 0.3c-0.4 0-0.7-0.3-0.9-0.6zm39.3 6.6l-15.9 9-15.8-9-7.6 4.4 23.4 13.3 23.5-13.3z"/>
</svg>