<svg version="1.2" xmlns="http://www.w3.org/2000/svg" viewBox="0 0 55 60" width="55" height="60">
	<title>icon1</title>
	<style>
		.s0 { fill: #000000 } 
	</style>
	<path id="Shape 1" fill-rule="evenodd" class="s0" d="m25.8 42.8v3.2c0 0.5-0.4 0.9-0.9 0.9-0.5 0-1-0.4-1-0.9v-3.2c0-0.5 0.5-0.9 1-0.9 0.5 0 0.9 0.4 0.9 0.9zm5.1 4.1v5.2c0 0.5-0.4 0.9-0.9 0.9-0.5 0-0.9-0.4-0.9-0.9v-5.2c0-0.6 0.4-1 0.9-1 0.5 0 0.9 0.4 0.9 1zm20.7 11.6c-0.3 0.3-0.7 0.5-1.2 0.5h-45.8c-0.5 0-0.9-0.2-1.2-0.6-0.3-0.3-0.5-0.8-0.4-1.3 0.5-2.7 2.7-4.6 5.4-4.7 1.7-2.1 4.2-3.3 6.9-3.3 1.6 0 3.3 0.5 4.7 1.4v-10.9q-1.1 0.2-2.2 0.2c-6.9 0-12.5-5.7-12.5-12.6q0-2.4 0.9-4.7c-1.1-1.9-1.7-4.1-1.7-6.3 0-6.8 5.4-12.3 12.1-12.3q1 0 2 0.2c2.3-2.6 5.6-4.1 9-4.1 3.5 0 6.8 1.5 9.1 4.1q1-0.2 2-0.2c6.7 0 12.1 5.5 12.1 12.3 0 2.2-0.6 4.4-1.7 6.3q0.9 2.3 0.9 4.7c0 6.9-5.6 12.6-12.5 12.6h-2.2v7.7c2.2 0.2 4.2 1.1 5.8 2.4h2.9c4.1 0 7.6 3.2 8 7.3 0 0.5-0.1 0.9-0.4 1.3zm-29.1-21.7q0.3-0.1 0.7 0 2.2 0.6 4.4 0.6 2.3 0 4.5-0.6 0.1-0.1 0.3-0.1 0.2 0 0.4 0.1 2.2 1.1 4.7 1.1c5.9 0 10.6-4.8 10.6-10.7q0-2.3-0.9-4.4c-0.1-0.3-0.1-0.6 0.1-0.9 1.1-1.7 1.7-3.7 1.7-5.7 0-5.8-4.6-10.4-10.3-10.4q-1.1 0-2.2 0.2c-0.3 0.1-0.7-0.1-0.9-0.3-1.9-2.5-4.9-3.8-8-3.8-3.1 0-6 1.3-7.9 3.8-0.3 0.2-0.6 0.4-0.9 0.3q-1.1-0.2-2.2-0.2c-5.7 0-10.3 4.6-10.3 10.4 0 2 0.6 4 1.7 5.7 0.2 0.3 0.2 0.6 0.1 0.9q-0.9 2.1-0.9 4.4c0 5.9 4.7 10.7 10.6 10.7q2.5 0 4.7-1.1zm-17.6 20.3q0 0 0 0zm0 0h22c-0.5-2.2-2.5-4-4.9-4q-0.5 0-1 0.1c-0.3 0.1-0.6 0-0.8-0.2-1.3-1.3-3.1-2-4.9-2-2.3 0-4.4 1-5.7 2.9-0.2 0.2-0.5 0.3-0.8 0.3q-0.1 0-0.2 0c-1.8 0-3.3 1.2-3.7 2.9zm28.6 0v-18q-0.6-0.2-1.2-0.5-2.3 0.7-4.7 0.7-2.3 0-4.6-0.7-0.6 0.3-1.2 0.5v12.2q0.1 0 0.2 0c3.5 0 6.3 2.5 6.7 5.8zm1.9 0h14.8c-0.5-3-3.1-5.3-6.2-5.3q-1.2 0-2.3 0.4c-0.4 0.2-0.8 0.1-1-0.2-1.4-1.5-3.3-2.4-5.3-2.6z"/>
</svg>