<svg version="1.2" xmlns="http://www.w3.org/2000/svg" viewBox="0 0 77 15" width="77" height="15">
	<title>Forma 1 copy 5</title>
	<style>
		.s0 { fill: #f7cd07 } 
	</style>
	<path id="Forma 1 copy 5" class="s0" d="m13.3 5q0-0.3-0.4-0.3l-4.1-0.6-1.8-3.8q-0.1-0.3-0.3-0.3-0.3 0-0.4 0.3l-1.8 3.8-4.1 0.6q-0.4 0-0.4 0.3 0 0.2 0.2 0.4l2.9 2.9-0.7 4.1q0 0.1 0 0.2 0 0.2 0.1 0.3 0.1 0.1 0.2 0.1 0.2 0 0.4-0.1l3.6-1.9 3.5 1.9q0.2 0.1 0.4 0.1 0.1 0 0.2-0.1 0.1-0.1 0.1-0.3 0-0.1 0-0.2l-0.7-4.1 2.9-2.9q0.2-0.2 0.2-0.4zm15.5 0q0-0.3-0.4-0.3l-4-0.6-1.8-3.8q-0.2-0.3-0.4-0.3-0.3 0-0.4 0.3l-1.8 3.8-4 0.6q-0.5 0-0.5 0.3 0 0.2 0.2 0.4l2.9 2.9-0.6 4.1q-0.1 0.1-0.1 0.2 0 0.2 0.1 0.3 0.1 0.1 0.3 0.1 0.1 0 0.3-0.1l3.6-1.9 3.6 1.9q0.2 0.1 0.3 0.1 0.2 0 0.2-0.1 0.1-0.1 0.1-0.3 0-0.1 0-0.2l-0.7-4.1 2.9-2.9q0.2-0.2 0.2-0.4zm16.1 0q0-0.3-0.4-0.3l-4-0.6-1.8-3.8q-0.2-0.3-0.4-0.3-0.3 0-0.4 0.3l-1.8 3.8-4 0.6q-0.5 0-0.5 0.3 0 0.2 0.2 0.4l2.9 2.9-0.7 4.1q0 0.1 0 0.2 0 0.2 0.1 0.3 0.1 0.1 0.3 0.1 0.1 0 0.3-0.1l3.6-1.9 3.6 1.9q0.1 0.1 0.3 0.1 0.2 0 0.2-0.1 0.1-0.1 0.1-0.3 0-0.1 0-0.2l-0.7-4.1 2.9-2.9q0.2-0.2 0.2-0.4zm15.6 0q0-0.3-0.5-0.3l-4-0.6-1.8-3.8q-0.1-0.3-0.4-0.3-0.2 0-0.4 0.3l-1.8 3.8-4 0.6q-0.4 0-0.4 0.3 0 0.2 0.2 0.4l2.9 2.9-0.7 4.1q0 0.1 0 0.2 0 0.2 0 0.3 0.1 0.1 0.3 0.1 0.1 0 0.3-0.1l3.6-1.9 3.6 1.9q0.2 0.1 0.3 0.1 0.2 0 0.3-0.1 0.1-0.1 0.1-0.3 0-0.1-0.1-0.2l-0.6-4.1 2.9-2.9q0.2-0.2 0.2-0.4zm15.5 0q0-0.3-0.4-0.3l-4.1-0.6-1.8-3.8q-0.1-0.3-0.4-0.3-0.2 0-0.3 0.3l-1.8 3.8-4.1 0.6q-0.4 0-0.4 0.3 0 0.2 0.2 0.4l2.9 2.9-0.7 4.1q0 0.1 0 0.2 0 0.2 0.1 0.3 0.1 0.1 0.2 0.1 0.2 0 0.4-0.1l3.5-1.9 3.6 1.9q0.2 0.1 0.4 0.1 0.1 0 0.2-0.1 0.1-0.1 0.1-0.3 0-0.1 0-0.2l-0.7-4.1 2.9-2.9q0.2-0.2 0.2-0.4z"/>
</svg>